<?xml version="1.0" encoding="UTF-8"?>
<svg xmlns="http://www.w3.org/2000/svg" viewBox="0 0 256 256" width="256" height="256" role="img" aria-label="Cloudgime">
  <defs>
    <linearGradient id="bg" x1="24" y1="20" x2="216" y2="228" gradientUnits="userSpaceOnUse">
      <stop offset="0" stop-color="#2f8dff"/>
      <stop offset="0.55" stop-color="#3959ff"/>
      <stop offset="1" stop-color="#0ed1c0"/>
    </linearGradient>
    <linearGradient id="stroke" x1="60" y1="58" x2="184" y2="190" gradientUnits="userSpaceOnUse">
      <stop offset="0" stop-color="#f7fbff"/>
      <stop offset="1" stop-color="#d9efff"/>
    </linearGradient>
  </defs>
  <rect x="16" y="16" width="224" height="224" rx="56" fill="#09111d"/>
  <rect x="20" y="20" width="216" height="216" rx="52" fill="url(#bg)"/>
  <path d="M172 84c-10-12-25-20-44-20-33 0-56 24-56 64s23 64 56 64c18 0 34-7 45-20l-17-17c-7 8-17 13-28 13-18 0-30-14-30-40 0-25 12-40 30-40 11 0 21 5 28 13l16-17Z" fill="url(#stroke)"/>
  <path d="M171 123h-35v20h35v-20Z" fill="#f7fbff" opacity="0.96"/>
</svg>
